<?xml version="1.0" encoding="UTF-8" standalone="no"?>
<!-- Created with Inkscape (http://www.inkscape.org/) -->

<svg
   xmlns:dc="http://purl.org/dc/elements/1.1/"
   xmlns:cc="http://creativecommons.org/ns#"
   xmlns:rdf="http://www.w3.org/1999/02/22-rdf-syntax-ns#"
   xmlns:svg="http://www.w3.org/2000/svg"
   xmlns="http://www.w3.org/2000/svg"
   xmlns:sodipodi="http://sodipodi.sourceforge.net/DTD/sodipodi-0.dtd"
   xmlns:inkscape="http://www.inkscape.org/namespaces/inkscape"
   width="210mm"
   height="297mm"
   viewBox="0 0 210 297"
   version="1.1"
   id="svg8"
   inkscape:version="0.92.1 r15371"
   sodipodi:docname="TakeONE.svg">
  <defs
     id="defs2" />
  <sodipodi:namedview
     id="base"
     pagecolor="#ffffff"
     bordercolor="#666666"
     borderopacity="1.0"
     inkscape:pageopacity="0.0"
     inkscape:pageshadow="2"
     inkscape:zoom="0.35355339"
     inkscape:cx="382.21402"
     inkscape:cy="713.2158"
     inkscape:document-units="mm"
     inkscape:current-layer="layer1"
     showgrid="false"
     inkscape:window-width="1366"
     inkscape:window-height="705"
     inkscape:window-x="-8"
     inkscape:window-y="-8"
     inkscape:window-maximized="1" />
  <metadata
     id="metadata5">
    <rdf:RDF>
      <cc:Work
         rdf:about="">
        <dc:format>image/svg+xml</dc:format>
        <dc:type
           rdf:resource="http://purl.org/dc/dcmitype/StillImage" />
        <dc:title></dc:title>
      </cc:Work>
    </rdf:RDF>
  </metadata>
  <g
     inkscape:label="Laag 1"
     inkscape:groupmode="layer"
     id="layer1">
    <g
       id="g4529"
       transform="matrix(1.611002,0,0,1.611002,-70.373173,-99.562124)">
      <path
         style="fill:#acd8ca;stroke-width:0.26458335"
         d="m 114.26445,172.23621 c -1.37295,-0.419 -2.59023,-1.37671 -3.31335,-2.6068 -0.70058,-1.19176 -0.72976,-1.39581 -0.85755,-5.99624 -0.0728,-2.61938 -0.21044,-4.49461 -0.30596,-4.16719 -0.17019,0.58339 -0.25361,0.59531 -4.16719,0.59531 h -3.99352 v 0.62578 c 0,0.34418 0.24677,0.93949 0.54837,1.32291 0.46662,0.59322 0.75317,0.69714 1.92215,0.69714 0.8823,0 1.73815,-0.19528 2.39227,-0.54587 0.56016,-0.30024 1.17418,-0.48614 1.36447,-0.41311 0.1903,0.073 0.66789,0.68204 1.06132,1.35338 l 0.71532,1.22061 -0.62851,0.68272 c -1.78767,1.94186 -5.88142,2.5645 -8.58476,1.3057 -2.740238,-1.27599 -3.817712,-3.52678 -3.817712,-7.97502 0,-4.25215 0.98334,-6.58359 3.365622,-7.9797 1.09393,-0.64109 1.54121,-0.73933 3.37936,-0.74223 1.76977,-0.003 2.30562,0.10376 3.25473,0.64725 1.89454,1.08487 2.85873,2.97493 3.3124,6.49315 0.0563,0.43656 0.12019,-4.4598 0.142,-10.8808 0.0432,-12.72783 0.0913,-13.17926 1.57127,-14.73812 1.26131,-1.32858 2.45071,-1.76546 4.80643,-1.76546 h 2.12582 l 2.41077,4.82865 c 1.32593,2.65575 2.59516,5.037 2.82053,5.29167 0.34962,0.39508 0.90197,0.46302 3.76423,0.46302 1.84496,0 3.42765,-0.0732 3.51709,-0.16261 0.0894,-0.0894 -0.90276,-2.29084 -2.20487,-4.89201 -1.3021,-2.60117 -2.36746,-4.91341 -2.36746,-5.13831 0,-0.34714 0.4097,-0.39753 2.71198,-0.33352 l 2.71197,0.0754 2.64584,5.15937 2.64583,5.15938 3.63802,0.0736 c 2.38667,0.0483 3.63802,-0.0209 3.63802,-0.20122 0,-0.15116 -1.07156,-2.41546 -2.38125,-5.03177 -1.30968,-2.61631 -2.38125,-4.87725 -2.38125,-5.0243 0,-0.16312 1.08273,-0.26737 2.77687,-0.26737 h 2.77686 l 2.64836,5.29167 2.64835,5.29167 h 3.57062 c 2.23017,0 3.57061,-0.10043 3.57061,-0.26753 0,-0.14713 -1.01203,-2.28894 -2.24896,-4.75956 -1.23693,-2.47062 -2.24896,-4.73395 -2.24896,-5.02962 0,-0.52505 0.12493,-0.53591 5.35782,-0.46596 l 5.35781,0.0716 v 19.44687 c 0,21.4036 0.0994,20.06904 -1.62358,21.79205 -1.73003,1.73003 -0.0774,1.6189 -24.83476,1.66993 -12.36927,0.0255 -22.81533,-0.0531 -23.21347,-0.17456 z m 8.92597,-6.55165 c 1.42375,-0.73965 2.62362,-2.03915 3.35989,-3.63889 0.56946,-1.2373 0.60886,-1.6572 0.60886,-6.48786 v -5.16494 l -0.87183,-1.77095 c -1.01792,-2.06768 -2.29032,-3.23079 -4.13713,-3.78177 -3.82998,-1.14265 -7.68253,0.50021 -9.14497,3.89973 -1.26808,2.94773 -1.2955,10.70618 -0.0478,13.52681 0.70738,1.59915 2.47692,3.26377 3.98294,3.74679 1.71806,0.55103 4.87616,0.38483 6.25004,-0.32892 z m -5.32737,-2.95603 c -1.44314,-0.87998 -1.81638,-2.37948 -1.81638,-7.29745 0,-2.75456 0.11767,-4.56467 0.33685,-5.18188 1.08428,-3.05331 4.82719,-3.47719 6.32954,-0.7168 0.39044,0.71739 0.4904,1.66294 0.56497,5.34418 0.1058,5.22302 -0.11994,6.39732 -1.45515,7.56965 -1.08757,0.9549 -2.6716,1.06783 -3.95983,0.2823 z m 17.10133,-3.31308 c 0,-3.70219 0.10557,-6.79651 0.23461,-6.87626 0.40009,-0.24727 0.71378,0.34475 3.71198,7.00573 l 2.91203,6.4695 1.99465,0.0773 1.99465,0.0773 v -10.72676 -10.72675 h -1.85208 -1.85209 l -0.004,6.54843 c -0.004,6.21283 -0.16168,7.69672 -0.75262,7.0754 -0.13725,-0.14431 -1.5311,-3.11987 -3.09744,-6.61237 -1.56634,-3.4925 -2.96588,-6.50367 -3.11009,-6.69149 -0.18144,-0.23631 -0.84028,-0.3178 -2.1391,-0.26458 l -1.87691,0.0769 -0.0693,10.31812 c -0.0381,5.67496 -0.0121,10.46723 0.0578,10.64948 0.0852,0.22195 0.74141,0.33136 1.98755,0.33136 h 1.86038 z m 26.9875,5.14376 v -1.5875 h -3.78354 c -2.58998,0 -3.8837,-0.10016 -4.10104,-0.3175 -0.39675,-0.39675 -0.43149,-4.79596 -0.0436,-5.52073 0.24736,-0.4622 0.58055,-0.51177 3.43958,-0.51177 h 3.1657 v -1.45521 -1.45521 h -3.02381 c -3.77434,0 -3.85536,-0.0591 -3.85536,-2.81442 0,-3.09415 -0.12807,-3.00641 4.38814,-3.00641 h 3.84035 l -0.0793,-1.52136 -0.0794,-1.52135 -5.88698,-0.0712 -5.88698,-0.0712 v 10.72069 10.72069 h 5.95313 5.95312 z m -56.88541,-8.58174 c 0,-0.59432 -0.52943,-1.83765 -0.87645,-2.05831 -1.0543,-0.67038 -2.56314,0.29751 -2.56314,1.64421 v 0.79375 h 1.71979 c 1.31764,0 1.7198,-0.0888 1.7198,-0.37965 z m -35.056707,10.54616 c -1.192985,-0.62204 -1.744679,-1.19313 -2.281105,-2.3613 -0.989453,-2.15472 -0.399532,-5.09808 1.310102,-6.53664 0.989455,-0.83258 2.052297,-1.20829 4.157912,-1.46982 1.435568,-0.1783 1.582023,-0.256 1.654323,-0.87764 0.04373,-0.37595 -0.141753,-0.95504 -0.4133,-1.29038 -0.616593,-0.76146 -1.48762,-0.55594 -1.977742,0.46667 -0.330796,0.69018 -0.409993,0.71198 -2.586636,0.71198 h -2.245394 l 0.02777,-0.96501 c 0.01527,-0.53075 0.297828,-1.40197 0.6279,-1.93604 2.228645,-3.60602 8.838598,-3.64392 10.784878,-0.0618 0.378074,0.69584 0.49434,1.90419 0.654225,6.79935 0.106942,3.27422 0.227335,6.31031 0.267541,6.74687 l 0.0731,0.79375 -1.977861,0.0789 c -1.096685,0.0438 -2.220458,-0.0509 -2.522382,-0.21248 -0.418213,-0.22381 -0.726588,-0.19647 -1.329431,0.11787 -1.011605,0.5275 -3.208305,0.52527 -4.223903,-0.004 z m 4.491159,-3.98043 c 0.309076,-0.30907 0.406519,-0.80683 0.349626,-1.78593 -0.07639,-1.31469 -0.102799,-1.35573 -0.838602,-1.30323 -1.163807,0.083 -1.753815,0.77585 -1.753815,2.05937 0,0.60804 0.07937,1.1849 0.17639,1.28191 0.334481,0.33448 1.638959,0.17533 2.066401,-0.25212 z m -18.735152,3.95628 c -0.09701,-0.097 -0.176389,-4.01633 -0.176389,-8.70961 0,-4.69327 -0.07227,-8.72155 -0.160599,-8.95173 -0.130492,-0.34006 -0.621206,-0.41852 -2.617526,-0.41852 -2.774372,0 -2.778125,-0.003 -2.778125,-2.08773 0,-2.25472 -0.357403,-2.16392 8.202083,-2.08385 l 7.540625,0.0705 v 1.98438 1.98437 l -2.513541,0.13229 -2.513542,0.1323 -0.141128,8.99583 c -0.07762,4.94771 -0.166918,9.0256 -0.198438,9.06198 -0.13328,0.15383 -4.482607,0.0506 -4.64342,-0.11025 z m 26.609134,-0.13142 c -0.249531,-0.24953 -0.327189,-2.97904 -0.327189,-11.50016 0,-12.84355 -0.168969,-12.00453 2.417543,-12.00453 2.732349,0 2.607746,-0.28656 2.621325,6.02858 0.01323,6.15785 -0.151551,5.92634 1.923764,2.70267 l 1.10716,-1.71979 h 2.509916 c 2.026971,0 2.52471,0.0768 2.586784,0.39913 0.04228,0.21952 -0.878827,1.75441 -2.046896,3.41086 -1.168069,1.65646 -2.123763,3.09462 -2.123763,3.1959 0,0.10129 1.079064,2.18169 2.397919,4.62311 1.318855,2.44143 2.332898,4.6084 2.25343,4.81549 -0.113625,0.2961 -0.668229,0.36027 -2.596356,0.3004 l -2.451868,-0.0761 -1.402178,-2.86578 c -1.752163,-3.58108 -2.11315,-3.5307 -2.226558,0.31079 l -0.07543,2.55499 -2.120206,0.0758 c -1.422276,0.0509 -2.227911,-0.0319 -2.447397,-0.25136 z"
         id="path4543"
         inkscape:connector-curvature="0" />
      <path
         style="fill:#8fcbb9;stroke-width:0.26458335"
         d="m 113.93001,171.83452 c -1.33879,-0.47358 -2.91408,-2.13875 -3.28414,-3.47151 -0.39744,-1.43138 -0.39349,-33.43605 0.004,-34.89234 0.70813,-2.59239 2.56709,-3.82144 5.79338,-3.83028 l 1.98437,-0.005 2.64584,5.22516 2.64583,5.22515 3.68318,0.0739 c 2.02575,0.0406 3.79028,-0.0332 3.92118,-0.16411 0.14096,-0.14095 -0.74057,-2.19287 -2.16182,-5.03206 -1.31991,-2.63672 -2.39983,-4.91436 -2.39983,-5.06142 0,-0.16132 0.99635,-0.26736 2.51222,-0.26736 h 2.51221 l 2.54695,5.09323 c 1.40082,2.80127 2.68133,5.1807 2.84559,5.28761 0.16426,0.10691 1.87997,0.19621 3.81269,0.19844 2.7526,0.003 3.5445,-0.0754 3.65465,-0.36239 0.0773,-0.20154 -0.93843,-2.52201 -2.25726,-5.15659 -1.31884,-2.63458 -2.39788,-4.85525 -2.39788,-4.93481 0,-0.0796 1.16086,-0.11058 2.57968,-0.0689 l 2.57969,0.0757 2.64583,5.15937 2.64584,5.15938 3.68318,0.0739 c 2.02574,0.0406 3.79028,-0.0332 3.92118,-0.1641 0.14096,-0.14095 -0.74057,-2.19287 -2.16182,-5.03206 -1.31991,-2.63672 -2.39983,-4.91693 -2.39983,-5.06713 0,-0.18075 1.72206,-0.24878 5.09323,-0.20122 l 5.09323,0.0719 0.0804,18.38854 c 0.0571,13.06804 -0.007,18.79617 -0.22184,19.79738 -0.37881,1.76576 -1.97291,3.54925 -3.56273,3.98601 -0.73105,0.20083 -7.84958,0.28761 -23.01875,0.28061 -18.23961,-0.008 -22.13974,-0.0736 -23.01875,-0.38452 z m 8.63279,-5.5629 c 1.76842,-0.60256 3.00727,-1.77236 3.98912,-3.76679 l 0.87184,-1.77096 v -5.03264 c 0,-6.11055 -0.26022,-7.13856 -2.35031,-9.28517 -1.07979,-1.10899 -1.67135,-1.48198 -2.92225,-1.84256 -4.4737,-1.28959 -8.4976,0.86729 -9.8157,5.26139 -0.56286,1.87638 -0.77963,6.72443 -0.41585,9.30036 0.51677,3.6592 2.2466,6.17511 4.89044,7.11275 1.44721,0.51326 4.28154,0.52489 5.75271,0.0236 z m -4.75837,-3.97003 c -1.25932,-1.05964 -1.49329,-2.13693 -1.49218,-6.87051 7.9e-4,-3.7921 0.0612,-4.36395 0.57885,-5.48654 1.34944,-2.92647 4.9171,-2.59272 5.85809,0.54802 0.17942,0.59887 0.30894,2.79726 0.30894,5.24389 0,3.84283 -0.0523,4.31629 -0.59531,5.39236 -0.97829,1.93853 -3.11042,2.47531 -4.65839,1.17278 z m 17.42454,-2.43926 c 0.0728,-3.52916 0.23518,-6.44619 0.36094,-6.48229 0.12576,-0.0361 1.45809,2.67281 2.96075,6.01979 1.50265,3.34698 2.85928,6.29378 3.01473,6.54844 0.23126,0.37885 0.66753,0.46302 2.4,0.46302 h 2.11736 l -0.0691,-10.91406 -0.0691,-10.91406 h -1.98437 -1.98438 l -0.13229,6.39465 c -0.0728,3.51706 -0.21918,6.48129 -0.32537,6.58718 -0.20936,0.20875 -0.92381,-1.24234 -4.11193,-8.35163 l -2.07639,-4.6302 -2.078,-0.0781 c -1.48347,-0.0557 -2.14018,0.02 -2.29535,0.26459 -0.25078,0.39532 -0.30862,20.58785 -0.0608,21.23362 0.13572,0.35369 0.51916,0.41559 2.18281,0.35237 l 2.01816,-0.0767 z m 26.85521,4.69688 v -1.71979 l -3.82555,-0.0737 c -2.65374,-0.0512 -3.88842,-0.17272 -4.03084,-0.39688 -0.33806,-0.53208 -0.25187,-4.80904 0.10409,-5.165 0.21074,-0.21074 1.35779,-0.3175 3.41128,-0.3175 3.4027,0 3.41497,-0.006 3.41497,-1.71979 0,-1.71595 -0.008,-1.71979 -3.45858,-1.71979 -2.83105,0 -3.16413,-0.05 -3.41128,-0.51178 -0.40549,-0.75768 -0.34941,-4.12325 0.0746,-4.47513 0.20477,-0.16995 1.86852,-0.31968 4.03489,-0.36312 l 3.68644,-0.0739 v -1.71979 -1.71979 h -6.08542 -6.08542 l -0.0691,10.91894 -0.0691,10.91895 6.1545,-0.071 6.15451,-0.071 z m -90.978055,2.07803 c -2.278465,-0.51195 -3.610494,-2.3045 -3.610494,-4.85876 0,-3.18296 1.883037,-5.01096 5.501087,-5.3403 0.976225,-0.0889 1.840529,-0.26093 1.920677,-0.38236 0.08015,-0.12144 0.09615,-0.64537 0.03557,-1.1643 -0.211656,-1.81297 -2.074124,-2.15137 -2.705201,-0.49151 -0.240011,0.63127 -0.328609,0.65356 -2.302438,0.57922 l -2.052823,-0.0773 0.03783,-0.84899 c 0.0555,-1.2456 1.029403,-2.62796 2.432597,-3.45283 1.085794,-0.63829 1.505754,-0.72527 3.502025,-0.72527 2.03178,0 2.382964,0.0759 3.368209,0.7279 1.910906,1.26458 2.084398,1.90962 2.259359,8.40023 0.08434,3.1287 0.231021,6.07549 0.325964,6.54843 l 0.172622,0.8599 h -2.09378 c -1.285153,0 -2.217404,-0.12362 -2.413876,-0.32009 -0.250407,-0.25041 -0.477943,-0.22959 -1.045104,0.0956 -0.99437,0.57021 -2.121178,0.72251 -3.332223,0.4504 z m 3.356435,-3.73255 c 0.52433,-0.3834 0.847842,-1.9776 0.600943,-2.96133 -0.140385,-0.55934 -0.325049,-0.67582 -1.071417,-0.67582 -1.118669,0 -1.998538,0.99751 -1.998538,2.26574 0,1.46275 1.332164,2.2027 2.469012,1.37141 z m 27.76419,3.7624 c -2.581224,-0.52239 -4.198437,-1.91516 -4.989605,-4.29714 -0.325723,-0.98067 -0.40355,-2.06538 -0.332806,-4.63859 0.08759,-3.18583 0.134612,-3.43347 0.914151,-4.81382 1.110473,-1.96634 2.63978,-2.92002 4.98427,-3.10822 4.37697,-0.35134 6.90189,2.57742 6.70705,7.77981 l -0.0777,2.07529 -4.0349,0.073 -4.03489,0.073 v 0.80721 c 0,0.5394 0.25659,1.0638 0.7734,1.58061 0.63144,0.63145 0.99759,0.7734 1.99491,0.7734 0.69938,0 1.66489,-0.22619 2.25877,-0.52917 0.57049,-0.29104 1.15604,-0.52917 1.30123,-0.52917 0.14518,0 0.58946,0.55541 0.98727,1.23424 l 0.72331,1.23423 -0.97005,0.83855 c -1.45997,1.26205 -4.08841,1.87493 -6.20439,1.4467 z m 2.96823,-10.30386 c 0.0879,-0.14217 0.0293,-0.74277 -0.13004,-1.33468 -0.32624,-1.21157 -1.13791,-1.75167 -2.22311,-1.4793 -0.98315,0.24676 -1.90462,2.29459 -1.30314,2.89607 0.27762,0.27762 3.47839,0.20576 3.65629,-0.0821 z m -49.419381,9.8815 c -0.10242,-0.10242 -0.186218,-4.15497 -0.186218,-9.00566 v -8.81945 h -2.198389 c -2.883175,0 -3.147826,-0.19629 -3.042089,-2.25634 l 0.0811,-1.58011 7.606771,-0.0702 7.606771,-0.0702 v 1.82783 c 0,2.174 0.03555,2.14903 -3.060829,2.14903 H 60.35892 l -0.06967,8.92969 -0.06967,8.92969 -2.128886,0.076 c -1.170887,0.0418 -2.212684,-0.008 -2.315104,-0.11024 z m 26.713089,-0.01 c -0.09701,-0.097 -0.17639,-5.20213 -0.17639,-11.34469 0,-9.28773 0.06282,-11.22044 0.37306,-11.47791 0.228081,-0.1893 1.076357,-0.279 2.182812,-0.23084 l 1.809753,0.0788 0.0713,5.75469 c 0.03922,3.16507 0.174477,5.75468 0.300578,5.75468 0.126097,0 0.735896,-0.8632 1.355108,-1.91823 1.727504,-2.94335 1.578848,-2.84427 4.267142,-2.84427 1.757781,0 2.340242,0.0866 2.340242,0.34801 0,0.19141 -0.772107,1.44301 -1.715791,2.78133 -0.943687,1.33833 -1.908016,2.72669 -2.142958,3.08526 -0.415716,0.63446 -0.362638,0.77189 1.980377,5.12789 1.324147,2.46177 2.407539,4.60774 2.407539,4.76881 0,0.19249 -0.819015,0.29287 -2.389418,0.29287 H 90.76263 l -1.27393,-2.60505 c -1.713288,-3.50349 -1.580861,-3.33336 -2.175586,-2.79514 -0.4258,0.38535 -0.502899,0.83419 -0.502899,2.92766 v 2.47253 h -2.072569 c -1.139915,0 -2.151946,-0.0794 -2.248958,-0.17639 z"
         id="path4541"
         inkscape:connector-curvature="0" />
      <path
         style="fill:#7bc1ac;stroke-width:0.26458335"
         d="m 113.31307,171.40217 c -0.6686,-0.33232 -1.44023,-1.01412 -1.85208,-1.63647 l -0.70598,-1.06681 v -17.92028 -17.92029 l 0.80908,-1.01674 c 1.20212,-1.51066 2.75953,-2.20737 4.93426,-2.20737 h 1.79476 l 2.64836,5.29166 2.64835,5.29167 h 3.96749 c 3.36255,0 3.96749,-0.0609 3.96749,-0.39966 0,-0.21981 -1.07366,-2.54446 -2.38591,-5.16589 -1.75027,-3.49646 -2.29032,-4.80291 -2.02713,-4.90391 0.19732,-0.0757 1.30075,-0.10255 2.45205,-0.0596 l 2.09328,0.0781 2.64583,5.15937 2.64584,5.15938 3.81569,0.0737 c 2.09862,0.0405 3.92269,-0.0333 4.05347,-0.16411 0.14067,-0.14066 -0.74242,-2.19593 -2.16204,-5.03184 -1.31991,-2.63672 -2.39983,-4.91436 -2.39983,-5.06142 0,-0.16028 0.9532,-0.26736 2.37999,-0.26736 h 2.37999 l 2.64835,5.29166 2.64836,5.29167 h 3.96749 c 3.36255,0 3.96749,-0.0609 3.96749,-0.39966 0,-0.21981 -1.06536,-2.52789 -2.36747,-5.12906 -1.30211,-2.60117 -2.2943,-4.80257 -2.20486,-4.89201 0.0894,-0.0894 2.34766,-0.1626 5.01829,-0.1626 h 4.85568 l -0.0711,19.53254 -0.0711,19.53254 -0.6376,0.93038 c -0.35068,0.51171 -1.05628,1.2173 -1.56801,1.56798 l -0.93041,0.6376 -22.90595,0.0683 -22.90595,0.0683 z m 9.73369,-5.15542 c 0.51558,-0.21476 1.39419,-0.83113 1.95246,-1.36973 2.21895,-2.14073 2.9796,-5.08079 2.75189,-10.63656 -0.20683,-5.04677 -1.23611,-7.38652 -4.00766,-9.11028 -1.05743,-0.65766 -1.58871,-0.79381 -3.48634,-0.89341 -2.65857,-0.13954 -4.12704,0.31075 -5.72684,1.75607 -2.26232,2.04388 -2.96501,4.69657 -2.79134,10.53746 0.0963,3.23795 0.21966,4.19157 0.70243,5.42918 0.62651,1.60611 2.1311,3.361 3.47941,4.05824 1.85157,0.95748 5.12456,1.06268 7.12599,0.22903 z m -4.47348,-3.61774 c -1.65621,-0.57826 -1.98372,-1.56122 -2.08971,-6.27189 -0.11118,-4.94183 0.17361,-6.56662 1.32009,-7.53132 0.59481,-0.5005 1.09939,-0.67076 1.98783,-0.67076 1.64168,0 2.56435,0.93427 3.00129,3.03903 0.45888,2.21038 0.24894,8.73666 -0.31504,9.79389 -0.87501,1.64026 -2.25067,2.21845 -3.90446,1.64105 z m 16.4085,3.77297 c 0.48427,-0.25917 0.51177,-0.61702 0.51177,-6.65868 0,-3.51163 0.0888,-6.296 0.1973,-6.18749 0.10851,0.10852 1.46014,3.0079 3.00362,6.44307 1.87317,4.16893 2.97329,6.31128 3.30843,6.44279 0.82398,0.32331 3.40956,0.25923 3.89464,-0.0965 0.41408,-0.30367 0.44527,-1.20739 0.3813,-11.04635 l -0.0697,-10.71562 h -2.24895 -2.24896 l -0.13229,6.48229 c -0.15472,7.58107 0.23279,7.64065 -3.44144,-0.52917 -1.34163,-2.98318 -2.56324,-5.57731 -2.71468,-5.76473 -0.19366,-0.23968 -0.91079,-0.31817 -2.41743,-0.26458 l -2.14208,0.0762 -0.0691,10.8941 c -0.0782,12.33822 -0.32754,11.11124 2.26927,11.16791 0.77355,0.0169 1.63675,-0.0926 1.91823,-0.2432 z m 27.06678,-0.0642 c 0.36912,-0.26991 0.44604,-0.65687 0.3813,-1.91823 l -0.0811,-1.58011 -3.43959,-0.0646 c -5.01874,-0.0943 -4.6302,0.15604 -4.6302,-2.98313 v -2.6408 h 3.12208 c 2.07551,0 3.22851,-0.10643 3.43958,-0.3175 0.4945,-0.49449 0.4135,-3.29321 -0.10101,-3.49065 -0.23018,-0.0883 -1.778,-0.1606 -3.43959,-0.1606 h -3.02106 v -2.38125 -2.38125 h 3.82715 c 3.513,0 3.84963,-0.042 4.10104,-0.51177 0.32331,-0.60411 0.35776,-2.65062 0.0527,-3.13124 -0.1644,-0.25902 -1.62932,-0.31947 -6.41209,-0.26458 l -6.19901,0.0711 -0.0697,10.71562 c -0.064,9.83896 -0.0328,10.74268 0.3813,11.04635 0.64881,0.47583 11.43635,0.46924 12.08817,-0.007 z m -90.942435,0.29948 c -2.278465,-0.51195 -3.610494,-2.3045 -3.610494,-4.85876 0,-3.18296 1.883037,-5.01096 5.501087,-5.3403 0.976225,-0.0889 1.840529,-0.26093 1.920677,-0.38236 0.08015,-0.12144 0.09615,-0.64537 0.03557,-1.1643 -0.211656,-1.81297 -2.074124,-2.15137 -2.705201,-0.49151 -0.240011,0.63127 -0.328609,0.65356 -2.302438,0.57922 l -2.052823,-0.0773 0.03783,-0.84899 c 0.0555,-1.2456 1.029403,-2.62796 2.432597,-3.45283 1.085794,-0.63829 1.505754,-0.72527 3.502025,-0.72527 2.03178,0 2.382964,0.0759 3.368209,0.7279 1.910906,1.26458 2.084398,1.90962 2.259359,8.40023 0.08434,3.1287 0.231021,6.07549 0.325964,6.54843 l 0.172622,0.8599 h -2.09378 c -1.285153,0 -2.217404,-0.12362 -2.413876,-0.32009 -0.250407,-0.25041 -0.477943,-0.22959 -1.045104,0.0956 -0.99437,0.57021 -2.121178,0.72251 -3.332223,0.4504 z m 3.356435,-3.73255 c 0.52433,-0.3834 0.847842,-1.9776 0.600943,-2.96133 -0.140385,-0.55934 -0.325049,-0.67582 -1.071417,-0.67582 -1.118669,0 -1.998538,0.99751 -1.998538,2.26574 0,1.46275 1.332164,2.2027 2.469012,1.37141 z m 27.76419,3.7624 c -2.581224,-0.52239 -4.198437,-1.91516 -4.989605,-4.29714 -0.325723,-0.98067 -0.40355,-2.06538 -0.332806,-4.63859 0.08759,-3.18583 0.134612,-3.43347 0.914151,-4.81382 1.110473,-1.96634 2.63978,-2.92002 4.98427,-3.10822 4.37697,-0.35134 6.90189,2.57742 6.70705,7.77981 l -0.0777,2.07529 -4.0349,0.073 -4.03489,0.073 v 0.80721 c 0,0.5394 0.25659,1.0638 0.7734,1.58061 0.63144,0.63145 0.99759,0.7734 1.99491,0.7734 0.69938,0 1.66489,-0.22619 2.25877,-0.52917 0.57049,-0.29104 1.15604,-0.52917 1.30123,-0.52917 0.14518,0 0.58946,0.55541 0.98727,1.23424 l 0.72331,1.23423 -0.97005,0.83855 c -1.45997,1.26205 -4.08841,1.87493 -6.20439,1.4467 z m 2.96823,-10.30386 c 0.0879,-0.14217 0.0293,-0.74277 -0.13004,-1.33468 -0.32624,-1.21157 -1.13791,-1.75167 -2.22311,-1.4793 -0.98315,0.24676 -1.90462,2.29459 -1.30314,2.89607 0.27762,0.27762 3.47839,0.20576 3.65629,-0.0821 z m -49.419381,9.8815 c -0.10242,-0.10242 -0.186218,-4.15497 -0.186218,-9.00566 v -8.81945 h -2.198389 c -2.883175,0 -3.147826,-0.19629 -3.042089,-2.25634 l 0.0811,-1.58011 7.606771,-0.0702 7.606771,-0.0702 v 1.82783 c 0,2.174 0.03555,2.14903 -3.060829,2.14903 H 60.35892 l -0.06967,8.92969 -0.06967,8.92969 -2.128886,0.076 c -1.170887,0.0418 -2.212684,-0.008 -2.315104,-0.11024 z m 26.713089,-0.01 c -0.09701,-0.097 -0.17639,-5.20213 -0.17639,-11.34469 0,-9.28773 0.06282,-11.22044 0.37306,-11.47791 0.228081,-0.1893 1.076357,-0.279 2.182812,-0.23084 l 1.809753,0.0788 0.0713,5.75469 c 0.03922,3.16507 0.174477,5.75468 0.300578,5.75468 0.126097,0 0.735896,-0.8632 1.355108,-1.91823 1.727504,-2.94335 1.578848,-2.84427 4.267142,-2.84427 1.757781,0 2.340242,0.0866 2.340242,0.34801 0,0.19141 -0.772107,1.44301 -1.715791,2.78133 -0.943687,1.33833 -1.908016,2.72669 -2.142958,3.08526 -0.415716,0.63446 -0.362638,0.77189 1.980377,5.12789 1.324147,2.46177 2.407539,4.60774 2.407539,4.76881 0,0.19249 -0.819015,0.29287 -2.389418,0.29287 H 90.76263 L 89.4887,163.8061 c -1.713288,-3.50349 -1.580861,-3.33336 -2.175586,-2.79514 -0.4258,0.38535 -0.502899,0.83419 -0.502899,2.92766 v 2.47253 h -2.072569 c -1.139915,0 -2.151946,-0.0794 -2.248958,-0.17639 z"
         id="path4539"
         inkscape:connector-curvature="0" />
      <path
         style="fill:#a0a0a0;stroke-width:0.26458335"
         d="m 113.13071,171.06014 c -0.59721,-0.35804 -1.35159,-1.14034 -1.71979,-1.78344 l -0.65591,-1.14562 0.084,-17.19791 c 0.0485,-9.92388 0.19094,-17.54316 0.33685,-18.01418 0.56483,-1.82339 2.68048,-3.0202 5.33894,-3.0202 h 1.67573 l 2.71812,5.29167 2.71811,5.29166 h 3.95733 c 3.43128,0 3.97957,-0.058 4.12463,-0.43597 0.10388,-0.27073 -0.75132,-2.27638 -2.25635,-5.29167 l -2.42364,-4.85569 h 2.24665 2.24664 l 2.41078,4.82865 c 1.32592,2.65575 2.59516,5.037 2.82052,5.29166 0.35542,0.40162 0.92853,0.46302 4.32188,0.46302 2.59237,0 3.97366,-0.0996 4.09451,-0.29509 0.10031,-0.16231 -0.90469,-2.49032 -2.23334,-5.17337 -1.32865,-2.68306 -2.41573,-4.93151 -2.41573,-4.99657 0,-0.0651 0.98227,-0.11813 2.18282,-0.11793 l 2.18281,3.7e-4 2.64583,5.22515 2.64583,5.22515 4.04055,0.0731 c 3.28354,0.0594 4.06738,0.003 4.18381,-0.30029 0.0788,-0.20535 -0.93577,-2.52893 -2.2546,-5.16352 -1.31884,-2.63458 -2.39788,-4.85362 -2.39788,-4.93119 0,-0.0776 2.17289,-0.1086 4.82865,-0.0689 l 4.82864,0.0721 v 18.78542 c 0,10.33198 -0.091,19.11065 -0.20226,19.50817 -0.25464,0.90992 -1.62891,2.49172 -2.602,2.99493 -0.63066,0.32613 -4.15017,0.38298 -23.57479,0.38085 l -22.83345,-0.002 -1.06388,-0.63781 z m 10.06526,-4.74348 c 2.89001,-1.34579 4.23951,-3.61956 4.66422,-7.85874 0.40352,-4.02769 -0.0238,-8.02881 -1.08832,-10.19126 -1.54604,-3.14043 -3.98438,-4.50755 -7.64898,-4.2886 -2.38316,0.14239 -3.73471,0.74572 -5.12982,2.28993 -1.27401,1.41018 -1.74564,2.37539 -2.19373,4.48955 -0.48474,2.28712 -0.47875,7.35262 0.0114,9.6663 0.46584,2.19876 1.65219,4.1466 3.1462,5.16568 1.57363,1.07338 2.41697,1.30691 4.79387,1.32746 1.68977,0.0146 2.3846,-0.10646 3.44512,-0.60032 z m -4.93441,-3.99432 c -1.23788,-0.69812 -1.5536,-2.06076 -1.55195,-6.69818 7.9e-4,-2.289 0.11969,-4.58739 0.26418,-5.10752 0.50082,-1.80285 2.17446,-2.67575 3.81558,-1.99005 1.53445,0.64113 1.83406,1.57474 1.95697,6.09805 0.12172,4.47958 -0.17254,6.37664 -1.12837,7.27459 -0.78753,0.73986 -2.42807,0.94666 -3.35641,0.42311 z m 17.17106,-1.72387 c 0.0393,-3.26981 0.15831,-6.03103 0.26458,-6.13604 0.10627,-0.10501 1.44338,2.57029 2.97135,5.94511 l 2.77812,6.13604 2.20846,0.0773 c 1.40063,0.049 2.34425,-0.0354 2.57969,-0.23083 0.3071,-0.25488 0.37123,-2.11083 0.37123,-10.74414 0,-6.68785 -0.0984,-10.61984 -0.27389,-10.94781 -0.23469,-0.43852 -0.56796,-0.51177 -2.32834,-0.51177 -1.24512,0 -2.17951,0.12508 -2.37194,0.3175 -0.22813,0.22813 -0.3175,1.99319 -0.3175,6.27063 0,3.27421 -0.0976,5.84001 -0.21688,5.70177 -0.11928,-0.13825 -1.33009,-2.75167 -2.69068,-5.80761 -1.36059,-3.05594 -2.65067,-5.76461 -2.86684,-6.01927 -0.55013,-0.64809 -4.66698,-0.68539 -4.91291,-0.0445 -0.22584,0.58853 -0.20147,21.67742 0.0253,21.9042 0.10225,0.10225 1.20358,0.15186 2.4474,0.11025 l 2.2615,-0.0757 z m 27.03912,5.56563 c 0.15064,-0.28147 0.27389,-1.00367 0.27389,-1.60489 0,-2.09459 -0.0457,-2.11667 -4.38451,-2.11667 h -3.83673 l 0.0757,-2.57969 0.0757,-2.57968 3.16488,-0.075 c 2.12416,-0.0504 3.23212,-0.18086 3.36938,-0.39688 0.11248,-0.17701 0.20634,-0.93842 0.20857,-1.69201 0.006,-2.06106 -0.24062,-2.20171 -3.86201,-2.20171 h -3.03451 l 0.0768,-2.18281 0.0768,-2.18281 3.83646,-0.1323 3.83646,-0.13229 v -1.98437 -1.98438 l -6.18463,-0.0711 c -4.3399,-0.0499 -6.29314,0.019 -6.54843,0.23083 -0.29755,0.24694 -0.36382,2.21992 -0.36382,10.83124 0,5.79111 0.0723,10.71763 0.1606,10.94781 0.14024,0.36545 0.96099,0.41851 6.47299,0.41851 5.97007,0 6.32723,-0.0277 6.58627,-0.51177 z m -91.365615,0.47314 c -2.278465,-0.51195 -3.610494,-2.3045 -3.610494,-4.85876 0,-3.18296 1.883037,-5.01096 5.501087,-5.3403 0.976225,-0.0889 1.840529,-0.26093 1.920677,-0.38236 0.08015,-0.12144 0.09615,-0.64537 0.03557,-1.1643 -0.211656,-1.81297 -2.074124,-2.15137 -2.705201,-0.49151 -0.240011,0.63127 -0.328609,0.65356 -2.302438,0.57922 l -2.052823,-0.0773 0.03783,-0.84899 c 0.0555,-1.2456 1.029403,-2.62796 2.432597,-3.45283 1.085794,-0.63829 1.505754,-0.72527 3.502025,-0.72527 2.03178,0 2.382964,0.0759 3.368209,0.7279 1.910906,1.26458 2.084398,1.90962 2.259359,8.40023 0.08434,3.1287 0.231021,6.07549 0.325964,6.54843 l 0.172622,0.8599 h -2.09378 c -1.285153,0 -2.217404,-0.12362 -2.413876,-0.32009 -0.250407,-0.25041 -0.477943,-0.22959 -1.045104,0.0956 -0.99437,0.57021 -2.121178,0.72251 -3.332223,0.4504 z m 3.356435,-3.73255 c 0.52433,-0.3834 0.847842,-1.9776 0.600943,-2.96133 -0.140385,-0.55934 -0.325049,-0.67582 -1.071417,-0.67582 -1.118669,0 -1.998538,0.99751 -1.998538,2.26574 0,1.46275 1.332164,2.2027 2.469012,1.37141 z m 27.76419,3.7624 c -2.581224,-0.52239 -4.198437,-1.91516 -4.989605,-4.29714 -0.325723,-0.98067 -0.40355,-2.06538 -0.332806,-4.63859 0.08759,-3.18583 0.134612,-3.43347 0.914151,-4.81382 1.110473,-1.96634 2.63978,-2.92002 4.98427,-3.10822 4.37697,-0.35134 6.90189,2.57742 6.70705,7.77981 l -0.0777,2.07529 -4.0349,0.073 -4.03489,0.073 v 0.80721 c 0,0.5394 0.25659,1.0638 0.7734,1.58061 0.63144,0.63145 0.99759,0.7734 1.99491,0.7734 0.69938,0 1.66489,-0.22619 2.25877,-0.52917 0.57049,-0.29104 1.15604,-0.52917 1.30123,-0.52917 0.14518,0 0.58946,0.55541 0.98727,1.23424 l 0.72331,1.23423 -0.97005,0.83855 c -1.45997,1.26205 -4.08841,1.87493 -6.20439,1.4467 z m 2.96823,-10.30386 c 0.0879,-0.14217 0.0293,-0.74277 -0.13004,-1.33468 -0.32624,-1.21157 -1.13791,-1.75167 -2.22311,-1.4793 -0.98315,0.24676 -1.90462,2.29459 -1.30314,2.89607 0.27762,0.27762 3.47839,0.20576 3.65629,-0.0821 z m -49.419381,9.8815 c -0.10242,-0.10242 -0.186218,-4.15497 -0.186218,-9.00566 v -8.81945 h -2.198389 c -2.883175,0 -3.147826,-0.19629 -3.042089,-2.25634 l 0.0811,-1.58011 7.606771,-0.0702 7.606771,-0.0702 v 1.82783 c 0,2.174 0.03555,2.14903 -3.060829,2.14903 H 60.35892 l -0.06967,8.92969 -0.06967,8.92969 -2.128886,0.076 c -1.170887,0.0418 -2.212684,-0.008 -2.315104,-0.11024 z m 26.713089,-0.01 c -0.09701,-0.097 -0.17639,-5.20213 -0.17639,-11.34469 0,-9.28773 0.06282,-11.22044 0.37306,-11.47791 0.228081,-0.1893 1.076357,-0.279 2.182812,-0.23084 l 1.809753,0.0788 0.0713,5.75469 c 0.03922,3.16507 0.174477,5.75468 0.300578,5.75468 0.126097,0 0.735896,-0.8632 1.355108,-1.91823 1.727504,-2.94335 1.578848,-2.84427 4.267142,-2.84427 1.757781,0 2.340242,0.0866 2.340242,0.34801 0,0.19141 -0.772107,1.44301 -1.715791,2.78133 -0.943687,1.33833 -1.908016,2.72669 -2.142958,3.08526 -0.415716,0.63446 -0.362638,0.77189 1.980377,5.12789 1.324147,2.46177 2.407539,4.60774 2.407539,4.76881 0,0.19249 -0.819015,0.29287 -2.389418,0.29287 H 90.76263 l -1.27393,-2.60505 c -1.713288,-3.50349 -1.580861,-3.33336 -2.175586,-2.79514 -0.4258,0.38535 -0.502899,0.83419 -0.502899,2.92766 v 2.47253 h -2.072569 c -1.139915,0 -2.151946,-0.0794 -2.248958,-0.17639 z"
         id="path4537"
         inkscape:connector-curvature="0" />
      <path
         style="fill:#4aab8e;stroke-width:0.26458335"
         d="m 113.13071,171.06014 c -0.59721,-0.35804 -1.35159,-1.14034 -1.71979,-1.78344 l -0.65591,-1.14562 0.084,-17.19791 c 0.0485,-9.92388 0.19094,-17.54316 0.33685,-18.01418 0.56483,-1.82339 2.68048,-3.0202 5.33894,-3.0202 h 1.67573 l 2.71812,5.29167 2.71811,5.29166 h 3.95733 c 3.43128,0 3.97957,-0.058 4.12463,-0.43597 0.10388,-0.27073 -0.75132,-2.27638 -2.25635,-5.29167 l -2.42364,-4.85569 h 2.24665 2.24664 l 2.41078,4.82865 c 1.32592,2.65575 2.59516,5.037 2.82052,5.29166 0.35542,0.40162 0.92853,0.46302 4.32188,0.46302 2.59237,0 3.97366,-0.0996 4.09451,-0.29509 0.10031,-0.16231 -0.90469,-2.49032 -2.23334,-5.17337 -1.32865,-2.68306 -2.41573,-4.93151 -2.41573,-4.99657 0,-0.0651 0.98227,-0.11813 2.18282,-0.11793 l 2.18281,3.7e-4 2.64583,5.22515 2.64583,5.22515 4.04055,0.0731 c 3.28354,0.0594 4.06738,0.003 4.18381,-0.30029 0.0788,-0.20535 -0.93577,-2.52893 -2.2546,-5.16352 -1.31884,-2.63458 -2.39788,-4.85362 -2.39788,-4.93119 0,-0.0776 2.17289,-0.1086 4.82865,-0.0689 l 4.82864,0.0721 v 18.78542 c 0,10.33198 -0.091,19.11065 -0.20226,19.50817 -0.25464,0.90992 -1.62891,2.49172 -2.602,2.99493 -0.63066,0.32613 -4.15017,0.38298 -23.57479,0.38085 l -22.83345,-0.002 -1.06388,-0.63781 z m 10.06526,-4.74348 c 2.89001,-1.34579 4.23951,-3.61956 4.66422,-7.85874 0.40352,-4.02769 -0.0238,-8.02881 -1.08832,-10.19126 -1.54604,-3.14043 -3.98438,-4.50755 -7.64898,-4.2886 -2.38316,0.14239 -3.73471,0.74572 -5.12982,2.28993 -1.27401,1.41018 -1.74564,2.37539 -2.19373,4.48955 -0.48474,2.28712 -0.47875,7.35262 0.0114,9.6663 0.46584,2.19876 1.65219,4.1466 3.1462,5.16568 1.57363,1.07338 2.41697,1.30691 4.79387,1.32746 1.68977,0.0146 2.3846,-0.10646 3.44512,-0.60032 z m -4.93441,-3.99432 c -1.23788,-0.69812 -1.5536,-2.06076 -1.55195,-6.69818 7.9e-4,-2.289 0.11969,-4.58739 0.26418,-5.10752 0.50082,-1.80285 2.17446,-2.67575 3.81558,-1.99005 1.53445,0.64113 1.83406,1.57474 1.95697,6.09805 0.12172,4.47958 -0.17254,6.37664 -1.12837,7.27459 -0.78753,0.73986 -2.42807,0.94666 -3.35641,0.42311 z m 17.17106,-1.72387 c 0.0393,-3.26981 0.15831,-6.03103 0.26458,-6.13604 0.10627,-0.10501 1.44338,2.57029 2.97135,5.94511 l 2.77812,6.13604 2.20846,0.0773 c 1.40063,0.049 2.34425,-0.0354 2.57969,-0.23083 0.3071,-0.25488 0.37123,-2.11083 0.37123,-10.74414 0,-6.68785 -0.0984,-10.61984 -0.27389,-10.94781 -0.23469,-0.43852 -0.56796,-0.51177 -2.32834,-0.51177 -1.24512,0 -2.17951,0.12508 -2.37194,0.3175 -0.22813,0.22813 -0.3175,1.99319 -0.3175,6.27063 0,3.27421 -0.0976,5.84001 -0.21688,5.70177 -0.11928,-0.13825 -1.33009,-2.75167 -2.69068,-5.80761 -1.36059,-3.05594 -2.65067,-5.76461 -2.86684,-6.01927 -0.55013,-0.64809 -4.66698,-0.68539 -4.91291,-0.0445 -0.22584,0.58853 -0.20147,21.67742 0.0253,21.9042 0.10225,0.10225 1.20358,0.15186 2.4474,0.11025 l 2.2615,-0.0757 z m 27.03912,5.56563 c 0.15064,-0.28147 0.27389,-1.00367 0.27389,-1.60489 0,-2.09459 -0.0457,-2.11667 -4.38451,-2.11667 h -3.83673 l 0.0757,-2.57969 0.0757,-2.57968 3.16488,-0.075 c 2.12416,-0.0504 3.23212,-0.18086 3.36938,-0.39688 0.11248,-0.17701 0.20634,-0.93842 0.20857,-1.69201 0.006,-2.06106 -0.24062,-2.20171 -3.86201,-2.20171 h -3.03451 l 0.0768,-2.18281 0.0768,-2.18281 3.83646,-0.1323 3.83646,-0.13229 v -1.98437 -1.98438 l -6.18463,-0.0711 c -4.3399,-0.0499 -6.29314,0.019 -6.54843,0.23083 -0.29755,0.24694 -0.36382,2.21992 -0.36382,10.83124 0,5.79111 0.0723,10.71763 0.1606,10.94781 0.14024,0.36545 0.96099,0.41851 6.47299,0.41851 5.97007,0 6.32723,-0.0277 6.58627,-0.51177 z m -91.419585,0.14932 c -2.22975,-0.62095 -3.291783,-2.08554 -3.286599,-4.53234 0.0065,-3.08479 1.781503,-4.74916 5.451549,-5.11187 l 1.819151,-0.17979 v -1.45165 c 0,-1.32937 -0.06247,-1.48158 -0.741701,-1.80713 -0.643176,-0.30827 -0.831919,-0.29637 -1.420879,0.0895 -0.373549,0.24476 -0.73828,0.67101 -0.810511,0.94724 -0.114025,0.43603 -0.388789,0.50221 -2.084851,0.50221 -2.16163,0 -2.25259,-0.095 -1.596054,-1.66627 0.472496,-1.13084 2.02973,-2.47038 3.273328,-2.81573 0.549679,-0.15265 1.594731,-0.26915 2.322335,-0.25889 2.192234,0.0309 3.67493,0.79732 4.577585,2.36616 0.469003,0.81515 0.545664,1.56526 0.675347,6.60807 0.08046,3.1287 0.225263,6.01596 0.321791,6.41614 l 0.175506,0.72761 h -1.919904 c -1.487215,0 -1.992638,-0.0995 -2.242635,-0.44136 -0.298534,-0.40827 -0.380058,-0.4013 -1.087501,0.093 -1.019119,0.7121 -2.122667,0.87801 -3.425957,0.51505 z m 3.528354,-3.22442 c 0.511654,-0.35838 0.588039,-0.65051 0.588039,-2.24896 v -1.83708 h -1.070359 c -1.490885,0 -2.369225,0.89514 -2.369225,2.41453 0,1.86372 1.402991,2.68611 2.851545,1.67151 z m 27.633681,3.30856 c -2.420662,-0.48305 -4.079382,-1.97563 -4.836313,-4.35189 -0.555614,-1.74427 -0.404826,-6.33283 0.266684,-8.11538 0.950114,-2.5221 2.983719,-3.92022 5.702109,-3.92022 3.90622,0 5.95313,2.5604 5.95313,7.44652 v 2.06175 l -4.0349,0.073 c -4.0071,0.0725 -4.0355,0.0773 -4.12273,0.69347 -0.13354,0.94318 0.47269,2.13789 1.30259,2.56704 1.0505,0.54324 2.85125,0.47829 4.01373,-0.14477 0.54302,-0.29104 1.04558,-0.52916 1.1168,-0.52916 0.0712,0 0.44578,0.47793 0.83234,1.06206 0.66757,1.00877 0.68009,1.08721 0.24947,1.56304 -1.09548,1.2105 -4.34155,2.01384 -6.44291,1.5945 z m 3.1001,-9.88795 c 0.23362,-0.28149 0.23988,-0.64678 0.0248,-1.44552 -0.48201,-1.79005 -1.93936,-2.38788 -3.26982,-1.34134 -0.69669,0.54802 -1.16297,2.01852 -0.87665,2.76467 0.21131,0.55068 3.66761,0.56928 4.12166,0.0222 z m -49.283937,9.46071 c -0.09701,-0.097 -0.176389,-4.14514 -0.176389,-8.99584 v -8.81944 l -2.315104,-0.004 c -1.273308,-0.002 -2.470796,-0.10279 -2.661086,-0.22348 -0.23345,-0.14806 -0.319507,-0.68459 -0.264583,-1.64959 l 0.0814,-1.43017 7.257745,-0.0705 c 5.630028,-0.0547 7.305444,0.005 7.470428,0.26459 0.339801,0.53533 0.253498,2.49208 -0.123721,2.80515 -0.189479,0.15725 -1.40987,0.32066 -2.71198,0.36312 l -2.367472,0.0772 -0.06967,8.92969 -0.06967,8.92969 H 58.1435 c -1.065217,0 -2.016133,-0.0794 -2.113147,-0.17639 z m 26.609833,-11.13455 0.06899,-11.31094 h 1.852083 1.852084 l 0.132291,5.79909 c 0.08878,3.89194 0.228508,5.83106 0.424858,5.89631 0.160909,0.0535 0.970052,-1.03808 1.798092,-2.42565 l 1.50553,-2.52287 h 2.265108 c 1.704332,0 2.233253,0.0819 2.136423,0.33073 -0.07078,0.1819 -1.036015,1.62529 -2.144971,3.20753 -1.108959,1.58224 -2.016289,2.96442 -2.016289,3.0715 0,0.10708 1.071562,2.16683 2.38125,4.57722 1.309687,2.41039 2.38125,4.45126 2.38125,4.53527 0,0.084 -0.99431,0.15275 -2.209575,0.15275 h -2.209576 l -1.354685,-2.91042 c -0.825079,-1.77261 -1.506953,-2.91042 -1.744173,-2.91042 -0.833681,0 -1.213242,1.09449 -1.213242,3.49846 v 2.32238 h -1.987216 -1.987214 z"
         id="path4535"
         inkscape:connector-curvature="0" />
      <path
         style="fill:#595959;stroke-width:0.26458335"
         d="m 71.052155,166.31342 c -2.22975,-0.62095 -3.291783,-2.08554 -3.286599,-4.53234 0.0065,-3.08479 1.781503,-4.74916 5.451549,-5.11187 l 1.819151,-0.17979 v -1.45165 c 0,-1.32937 -0.06247,-1.48158 -0.741701,-1.80713 -0.643176,-0.30827 -0.831919,-0.29637 -1.420879,0.0895 -0.373549,0.24476 -0.73828,0.67101 -0.810511,0.94724 -0.114025,0.43603 -0.388789,0.50221 -2.084851,0.50221 -2.16163,0 -2.25259,-0.095 -1.596054,-1.66627 0.472496,-1.13084 2.02973,-2.47038 3.273328,-2.81573 0.549679,-0.15265 1.594731,-0.26915 2.322335,-0.25889 2.192234,0.0309 3.67493,0.79732 4.577585,2.36616 0.469003,0.81515 0.545664,1.56526 0.675347,6.60807 0.08046,3.1287 0.225263,6.01596 0.321791,6.41614 l 0.175506,0.72761 h -1.919904 c -1.487215,0 -1.992638,-0.0995 -2.242635,-0.44136 -0.298534,-0.40827 -0.380058,-0.4013 -1.087501,0.093 -1.019119,0.7121 -2.122667,0.87801 -3.425957,0.51505 z m 3.528354,-3.22442 c 0.511654,-0.35838 0.588039,-0.65051 0.588039,-2.24896 v -1.83708 h -1.070359 c -1.490885,0 -2.369225,0.89514 -2.369225,2.41453 0,1.86372 1.402991,2.68611 2.851545,1.67151 z m 27.633681,3.30856 c -2.420662,-0.48305 -4.079382,-1.97563 -4.836313,-4.35189 -0.555614,-1.74427 -0.404826,-6.33283 0.266684,-8.11538 0.950114,-2.5221 2.983719,-3.92022 5.702109,-3.92022 3.90622,0 5.95313,2.5604 5.95313,7.44652 v 2.06175 l -4.0349,0.073 c -4.0071,0.0725 -4.0355,0.0773 -4.12273,0.69347 -0.13354,0.94318 0.47269,2.13789 1.30259,2.56704 1.0505,0.54324 2.85125,0.47829 4.01373,-0.14477 0.54302,-0.29104 1.04558,-0.52916 1.1168,-0.52916 0.0712,0 0.44578,0.47793 0.83234,1.06206 0.66757,1.00877 0.68009,1.08721 0.24947,1.56304 -1.09548,1.2105 -4.34155,2.01384 -6.44291,1.5945 z m 3.1001,-9.88795 c 0.23362,-0.28149 0.23988,-0.64678 0.0248,-1.44552 -0.48201,-1.79005 -1.93936,-2.38788 -3.26982,-1.34134 -0.69669,0.54802 -1.16297,2.01852 -0.87665,2.76467 0.21131,0.55068 3.66761,0.56928 4.12166,0.0222 z m -49.283937,9.46071 c -0.09701,-0.097 -0.176389,-4.14514 -0.176389,-8.99584 v -8.81944 l -2.315104,-0.004 c -1.273308,-0.002 -2.470796,-0.10279 -2.661086,-0.22348 -0.23345,-0.14806 -0.319507,-0.68459 -0.264583,-1.64959 l 0.0814,-1.43017 7.257745,-0.0705 c 5.630028,-0.0547 7.305444,0.005 7.470428,0.26459 0.339801,0.53533 0.253498,2.49208 -0.123721,2.80515 -0.189479,0.15725 -1.40987,0.32066 -2.71198,0.36312 l -2.367472,0.0772 -0.06967,8.92969 -0.06967,8.92969 H 58.1435 c -1.065217,0 -2.016133,-0.0794 -2.113147,-0.17639 z m 26.609833,-11.13455 0.06899,-11.31094 h 1.852083 1.852084 l 0.132291,5.79909 c 0.08878,3.89194 0.228508,5.83106 0.424858,5.89631 0.160909,0.0535 0.970052,-1.03808 1.798092,-2.42565 l 1.50553,-2.52287 h 2.265108 c 1.704332,0 2.233253,0.0819 2.136423,0.33073 -0.07078,0.1819 -1.036015,1.62529 -2.144971,3.20753 -1.108959,1.58224 -2.016289,2.96442 -2.016289,3.0715 0,0.10708 1.071562,2.16683 2.38125,4.57722 1.309687,2.41039 2.38125,4.45126 2.38125,4.53527 0,0.084 -0.99431,0.15275 -2.209575,0.15275 h -2.209576 l -1.354685,-2.91042 c -0.825079,-1.77261 -1.506953,-2.91042 -1.744173,-2.91042 -0.833681,0 -1.213242,1.09449 -1.213242,3.49846 v 2.32238 h -1.987216 -1.987214 z"
         id="path4533"
         inkscape:connector-curvature="0" />
      <path
         style="fill:#3c3c3c;stroke-width:0.26458335"
         d="m 69.876746,165.55139 c -1.355132,-0.92499 -1.900414,-2.15572 -1.79268,-4.04615 0.161184,-2.82832 1.762097,-4.20666 5.296756,-4.56033 1.776756,-0.17778 1.925844,-0.24165 2.167025,-0.92844 0.187629,-0.53429 0.152826,-1.04234 -0.126294,-1.84359 -0.306578,-0.88008 -0.559279,-1.15567 -1.236864,-1.34888 -0.975534,-0.27816 -2.157843,0.30594 -2.386107,1.17882 -0.111864,0.42776 -0.384377,0.50222 -1.838098,0.50222 -1.647005,0 -1.70045,-0.0208 -1.526474,-0.59531 0.363919,-1.20166 1.179902,-2.21887 2.289694,-2.85435 0.9345,-0.53511 1.49176,-0.65044 3.121927,-0.64613 2.280156,0.006 3.325215,0.44 4.27862,1.77669 0.588512,0.82511 0.622974,1.13113 0.767723,6.81702 0.08335,3.27422 0.244919,6.16148 0.359037,6.41614 0.185861,0.41477 0.02824,0.46302 -1.512306,0.46302 -1.284629,0 -1.758328,-0.10042 -1.872088,-0.39687 -0.210701,-0.54908 -0.885349,-0.49609 -1.684206,0.13229 -0.966361,0.76014 -3.14416,0.72668 -4.305665,-0.0661 z m 5.049261,-2.27975 c 0.835716,-0.67672 1.082141,-3.65587 0.361971,-4.37604 -0.499171,-0.49917 -1.831925,-0.41412 -2.779006,0.17734 -1.125289,0.70276 -1.439331,3.23944 -0.515424,4.16335 0.673912,0.67391 2.12231,0.69138 2.932459,0.0353 z m 26.352943,2.60602 c -1.16569,-0.34989 -2.511762,-1.50966 -3.16024,-2.72284 -0.533056,-0.99725 -0.59287,-1.48287 -0.59287,-4.81332 0,-3.60689 0.0205,-3.74117 0.780434,-5.11304 0.922578,-1.66547 2.377176,-2.63694 4.285686,-2.86225 3.96614,-0.46821 6.44326,2.26035 6.44326,7.09727 v 1.80406 h -3.95561 c -3.38481,0 -3.9905,0.0624 -4.19749,0.43224 -0.39437,0.7047 0.11952,2.28497 0.99947,3.07349 0.67564,0.60543 1.05411,0.7276 2.25403,0.7276 0.82193,0 1.8557,-0.19725 2.40396,-0.45869 0.949,-0.45255 0.96862,-0.45039 1.46418,0.1616 0.62648,0.77367 0.63234,1.15572 0.0261,1.70433 -1.17725,1.0654 -4.73117,1.5758 -6.75094,0.96955 z m 4.4637,-9.35271 c 0.23094,-0.92015 -0.33959,-2.73321 -1.00723,-3.20085 -1.18986,-0.83341 -2.81981,-0.40945 -3.50267,0.91106 -0.40807,0.78912 -0.54109,2.42146 -0.22323,2.73932 0.097,0.097 1.16631,0.17639 2.37621,0.17639 2.09252,0 2.20748,-0.0305 2.35692,-0.62592 z m -49.415524,0.48376 c -0.06484,-7.54249 -0.135814,-8.91101 -0.473162,-9.12407 -0.218281,-0.13787 -1.445195,-0.25249 -2.726476,-0.25471 l -2.329601,-0.004 0.08064,-1.25677 0.08064,-1.25677 7.077605,-0.0705 7.077604,-0.0705 v 1.32724 1.32723 H 62.98032 c -3.452691,0 -3.157606,-0.87863 -3.157606,9.40202 v 8.85423 h -1.709651 -1.709651 z m 26.577582,-2.17294 0.06905,-11.04635 h 1.5875 1.5875 l 0.132292,5.95312 c 0.12306,5.53772 0.165979,5.95313 0.615069,5.95313 0.326803,0 0.973696,-0.81207 2.002282,-2.51355 l 1.519508,-2.51354 1.900319,-0.0777 c 1.045178,-0.0427 1.900322,-6.1e-4 1.900322,0.0937 0,0.0943 -0.852024,1.3794 -1.89339,2.85586 -1.041365,1.47646 -1.94628,2.88541 -2.010921,3.131 -0.06464,0.24559 0.906447,2.34423 2.157974,4.66365 1.251527,2.31943 2.275504,4.29138 2.275504,4.38212 0,0.0908 -0.812168,0.16499 -1.804818,0.16499 h -1.804821 l -1.405554,-2.91041 c -1.50807,-3.12269 -1.847043,-3.39353 -2.876188,-2.29805 -0.499501,0.53169 -0.575286,0.9151 -0.575286,2.91041 v 2.29805 H 84.558354 82.83566 Z"
         id="path4531"
         inkscape:connector-curvature="0" />
    </g>
  </g>
</svg>
